<svg xmlns="http://www.w3.org/2000/svg" version="1.1" xmlns:xlink="http://www.w3.org/1999/xlink" width="1000" height="1000"><style>
    #light-icon {
      display: inline;
    }
    #dark-icon {
      display: none;
    }

    @media (prefers-color-scheme: dark) {
      #light-icon {
        display: none;
      }
      #dark-icon {
        display: inline;
      }
    }
  </style><g id="light-icon"><svg xmlns="http://www.w3.org/2000/svg" version="1.1" xmlns:xlink="http://www.w3.org/1999/xlink" width="1000" height="1000"><g clip-path="url(#SvgjsClipPath1074)"><rect width="1000" height="1000" fill="#4e4e88"></rect><g transform="matrix(12.360939431396785,0,0,12.360939431396785,0,0)"><svg xmlns="http://www.w3.org/2000/svg" version="1.1" xmlns:xlink="http://www.w3.org/1999/xlink" width="80.9" height="80.9"><svg version="1.1" xmlns="http://www.w3.org/2000/svg" xmlns:xlink="http://www.w3.org/1999/xlink" x="0px" y="0px" viewBox="0 0 80.9 80.9" style="enable-background:new 0 0 80.9 80.9;" xml:space="preserve">
<style type="text/css">
	.st0{fill:#020254;}
	.st1{fill:#FFFFFF;}
</style>
<g id="Layer_2">
	<rect class="st0" width="80.9" height="80.9"></rect>
</g>
<g id="Layer_1">
	<g>
		<path class="st1" d="M71.1,33.5c-1.3-0.5-2.3-0.8-3.2-1.3c-0.3-0.1-0.5-0.6-0.6-0.9c-1.1-4-3-7.7-5.8-10.8c-2.4-2.7-5-5-8.2-6.7
			c-1.9-1-4-1.7-6-2.4c-3.9-1.3-7.9-1.3-11.9-0.8c-4.7,0.6-9.1,2.2-12.9,5.1c-2.5,1.8-4.7,4-6.5,6.5c-2.2,3-3.8,6.3-4.7,10
			c-1,4-0.9,7.9-0.4,11.9c0.4,3.4,1.6,6.5,3.4,9.5c1.2,2.1,2.6,4.1,4.3,5.8c4.1,4.2,9,7,14.9,8.2c3.4,0.7,6.9,0.9,10.3,0.3
			c3.9-0.6,7.7-1.6,10.9-3.9c0.8-0.6,1.6-0.7,2.6-0.3c0.6,0.3,1.2,0.5,2,0.9c-0.4,0.4-0.7,0.7-1,0.9c-4,2.8-8.4,4.8-13.2,5.6
			c-4.3,0.7-8.7,0.6-13-0.4c-6.4-1.3-11.6-4.7-16-9.4c-2.6-2.8-4.6-6-6.3-9.4c-1.7-3.5-2.2-7.2-2.5-11C7,36.9,7.6,33.1,8.6,29.4
			c0.4-1.7,1.3-3.4,2.2-4.9c2.6-4.5,5.9-8.4,10.1-11.4C24.3,10.6,28,8.9,32.2,8c4.2-0.9,8.3-1.2,12.5-0.4c4.9,0.8,9.4,2.6,13.4,5.5
			c1.8,1.3,3.4,2.9,5,4.5c1.7,1.8,3.4,3.7,4.6,5.9c1.2,2.1,2,4.4,2.7,6.7c0.2,0.6,0.3,1.2,0.5,1.8C70.9,32.4,71,32.8,71.1,33.5z"></path>
		<path class="st1" d="M31.2,30.1c0,3.2,0,6.3,0,9.5c0.5,0,1,0.1,1.5,0.1c3,0,5.9,0,8.9,0c0.5,0,1,0,1.5,0.1c1,0.2,1.5,0.8,1.5,1.7
			c0,1-0.5,1.7-1.5,1.9c-0.4,0.1-0.9,0.1-1.4,0.1c-3,0-6.1,0-9.1,0c-0.4,0-0.9,0.1-1.4,0.1c0,0.5,0,0.9,0,1.4c0,3,0,5.9,0,8.9
			c0,0.4,0,0.8,0,1.2c-0.1,1.3-0.9,2-2.1,2c-1.2,0-2-0.7-2-2.1c0-0.8,0-1.6,0-2.4c0-7.9,0-15.7,0-23.6c0-2.2,0.6-2.8,2.8-2.9
			c5.5,0,11.1,0,16.6,0c0.4,0,0.8,0,1.1,0.1c1,0.2,1.5,0.8,1.5,1.8c0,1-0.6,1.6-1.6,1.8C46.9,30,46.4,30,45.8,30
			c-4.4,0-8.7,0-13.1,0C32.2,30,31.8,30,31.2,30.1z"></path>
		<path class="st1" d="M64.6,55.6c0,1.2-1.2,2.3-2.4,2.3c-1.2,0-2.4-1.2-2.4-2.4c0-1.3,1.1-2.3,2.5-2.3
			C63.6,53.3,64.7,54.4,64.6,55.6z"></path>
		<path class="st1" d="M69.2,44.5c0,1.3-1.1,2.4-2.3,2.4c-1.2,0-2.3-1.1-2.3-2.3c0-1.3,1-2.4,2.3-2.4C68.1,42.2,69.1,43.2,69.2,44.5
			z"></path>
	</g>
</g>
</svg></svg></g></g><defs><clipPath id="SvgjsClipPath1074"><rect width="1000" height="1000" x="0" y="0" rx="350" ry="350"></rect></clipPath></defs></svg></g><g id="dark-icon"><svg xmlns="http://www.w3.org/2000/svg" version="1.1" xmlns:xlink="http://www.w3.org/1999/xlink" width="1000" height="1000"><g clip-path="url(#SvgjsClipPath1075)"><rect width="1000" height="1000" fill="#4e4e88"></rect><g transform="matrix(12.360939431396785,0,0,12.360939431396785,0,0)"><svg xmlns="http://www.w3.org/2000/svg" version="1.1" xmlns:xlink="http://www.w3.org/1999/xlink" width="80.9" height="80.9"><svg version="1.1" xmlns="http://www.w3.org/2000/svg" xmlns:xlink="http://www.w3.org/1999/xlink" x="0px" y="0px" viewBox="0 0 80.9 80.9" style="enable-background:new 0 0 80.9 80.9;" xml:space="preserve">
<style type="text/css">
	.st0{display:none;}
	.st1{display:inline;fill:#D30F0F;}
	.st2{fill:#0E0E0E;}
</style>
<g id="Layer_2" class="st0">
	<rect class="st1" width="80.9" height="80.9"></rect>
</g>
<g id="Layer_1">
	<g>
		<path class="st2" d="M71.1,33.5c-1.3-0.5-2.3-0.8-3.2-1.3c-0.3-0.1-0.5-0.6-0.6-0.9c-1.1-4-3-7.7-5.8-10.8c-2.4-2.7-5-5-8.2-6.7
			c-1.9-1-4-1.7-6-2.4c-3.9-1.3-7.9-1.3-11.9-0.8c-4.7,0.6-9.1,2.2-12.9,5.1c-2.5,1.8-4.7,4-6.5,6.5c-2.2,3-3.8,6.3-4.7,10
			c-1,4-0.9,7.9-0.4,11.9c0.4,3.4,1.6,6.5,3.4,9.5c1.2,2.1,2.6,4.1,4.3,5.8c4.1,4.2,9,7,14.9,8.2c3.4,0.7,6.9,0.9,10.3,0.3
			c3.9-0.6,7.7-1.6,10.9-3.9c0.8-0.6,1.6-0.7,2.6-0.3c0.6,0.3,1.2,0.5,2,0.9c-0.4,0.4-0.7,0.7-1,0.9c-4,2.8-8.4,4.8-13.2,5.6
			c-4.3,0.7-8.7,0.6-13-0.4c-6.4-1.3-11.6-4.7-16-9.4c-2.6-2.8-4.6-6-6.3-9.4c-1.7-3.5-2.2-7.2-2.5-11C7,36.9,7.6,33.1,8.6,29.4
			c0.4-1.7,1.3-3.4,2.2-4.9c2.6-4.5,5.9-8.4,10.1-11.4C24.3,10.6,28,8.9,32.2,8c4.2-0.9,8.3-1.2,12.5-0.4c4.9,0.8,9.4,2.6,13.4,5.5
			c1.8,1.3,3.4,2.9,5,4.5c1.7,1.8,3.4,3.7,4.6,5.9c1.2,2.1,2,4.4,2.7,6.7c0.2,0.6,0.3,1.2,0.5,1.8C70.9,32.4,71,32.8,71.1,33.5z"></path>
		<path class="st2" d="M31.2,30.1c0,3.2,0,6.3,0,9.5c0.5,0,1,0.1,1.5,0.1c3,0,5.9,0,8.9,0c0.5,0,1,0,1.5,0.1c1,0.2,1.5,0.8,1.5,1.7
			c0,1-0.5,1.7-1.5,1.9c-0.4,0.1-0.9,0.1-1.4,0.1c-3,0-6.1,0-9.1,0c-0.4,0-0.9,0.1-1.4,0.1c0,0.5,0,0.9,0,1.4c0,3,0,5.9,0,8.9
			c0,0.4,0,0.8,0,1.2c-0.1,1.3-0.9,2-2.1,2c-1.2,0-2-0.7-2-2.1c0-0.8,0-1.6,0-2.4c0-7.9,0-15.7,0-23.6c0-2.2,0.6-2.8,2.8-2.9
			c5.5,0,11.1,0,16.6,0c0.4,0,0.8,0,1.1,0.1c1,0.2,1.5,0.8,1.5,1.8c0,1-0.6,1.6-1.6,1.8C46.9,30,46.4,30,45.8,30
			c-4.4,0-8.7,0-13.1,0C32.2,30,31.8,30,31.2,30.1z"></path>
		<path class="st2" d="M64.6,55.6c0,1.2-1.2,2.3-2.4,2.3c-1.2,0-2.4-1.2-2.4-2.4c0-1.3,1.1-2.3,2.5-2.3
			C63.6,53.3,64.7,54.4,64.6,55.6z"></path>
		<path class="st2" d="M69.2,44.5c0,1.3-1.1,2.4-2.3,2.4c-1.2,0-2.3-1.1-2.3-2.3c0-1.3,1-2.4,2.3-2.4C68.1,42.2,69.1,43.2,69.2,44.5
			z"></path>
	</g>
</g>
</svg></svg></g></g><defs><clipPath id="SvgjsClipPath1075"><rect width="1000" height="1000" x="0" y="0" rx="150" ry="150"></rect></clipPath></defs></svg></g></svg>