<svg xmlns="http://www.w3.org/2000/svg" version="1.1" xmlns:xlink="http://www.w3.org/1999/xlink" width="79.4" height="74.8"><svg xmlns="http://www.w3.org/2000/svg" version="1.1" xmlns:xlink="http://www.w3.org/1999/xlink" width="79.4" height="74.8"><svg version="1.1" id="Layer_1" xmlns="http://www.w3.org/2000/svg" xmlns:xlink="http://www.w3.org/1999/xlink" x="0px" y="0px" viewBox="0 0 79.4 74.8" style="enable-background:new 0 0 79.4 74.8;" xml:space="preserve">
<style type="text/css">
	.st0{fill:#3366FF;}
</style>
<g>
	<path class="st0" d="M71.2,31.2c-1.3-0.5-2.3-0.8-3.2-1.3c-0.3-0.1-0.5-0.6-0.6-0.9c-1.1-4-3-7.7-5.8-10.8c-2.4-2.7-5-5-8.2-6.7
		c-1.9-1-4-1.7-6-2.4c-3.9-1.3-7.9-1.3-11.9-0.8c-4.7,0.6-9.1,2.2-12.9,5.1c-2.5,1.8-4.7,4-6.5,6.5c-2.2,3-3.8,6.3-4.7,10
		c-1,4-0.9,7.9-0.4,11.9c0.4,3.4,1.6,6.5,3.4,9.5c1.2,2.1,2.6,4.1,4.3,5.8c4.1,4.2,9,7,14.9,8.2c3.4,0.7,6.9,0.9,10.3,0.3
		c3.9-0.6,7.7-1.6,10.9-3.9c0.8-0.6,1.6-0.7,2.6-0.3c0.6,0.3,1.2,0.5,2,0.9c-0.4,0.4-0.7,0.7-1,0.9c-4,2.8-8.4,4.8-13.2,5.6
		c-4.3,0.7-8.7,0.6-13-0.4c-6.4-1.3-11.6-4.7-16-9.4c-2.6-2.8-4.6-6-6.3-9.4c-1.7-3.5-2.2-7.2-2.5-11C7,34.6,7.7,30.8,8.7,27
		c0.4-1.7,1.3-3.4,2.2-4.9c2.6-4.5,5.9-8.4,10.1-11.4c3.4-2.4,7.1-4.2,11.3-5.1c4.2-0.9,8.3-1.2,12.5-0.4c4.9,0.8,9.4,2.6,13.4,5.5
		c1.8,1.3,3.4,2.9,5,4.5c1.7,1.8,3.4,3.7,4.6,5.9c1.2,2.1,2,4.4,2.7,6.7c0.2,0.6,0.3,1.2,0.5,1.8C71,30,71,30.5,71.2,31.2z"></path>
	<path class="st0" d="M31.3,27.7c0,3.2,0,6.3,0,9.5c0.5,0,1,0.1,1.5,0.1c3,0,5.9,0,8.9,0c0.5,0,1,0,1.5,0.1c1,0.2,1.5,0.8,1.5,1.7
		c0,1-0.5,1.7-1.5,1.9c-0.4,0.1-0.9,0.1-1.4,0.1c-3,0-6.1,0-9.1,0c-0.4,0-0.9,0.1-1.4,0.1c0,0.5,0,0.9,0,1.4c0,3,0,5.9,0,8.9
		c0,0.4,0,0.8,0,1.2c-0.1,1.3-0.9,2-2.1,2c-1.2,0-2-0.7-2-2.1c0-0.8,0-1.6,0-2.4c0-7.9,0-15.7,0-23.6c0-2.2,0.6-2.8,2.8-2.9
		c5.5,0,11.1,0,16.6,0c0.4,0,0.8,0,1.1,0.1c1,0.2,1.5,0.8,1.5,1.8c0,1-0.6,1.6-1.6,1.8c-0.5,0.1-1.1,0.1-1.6,0.1
		c-4.4,0-8.7,0-13.1,0C32.3,27.6,31.8,27.7,31.3,27.7z"></path>
	<path class="st0" d="M64.7,53.3c0,1.2-1.2,2.3-2.4,2.3c-1.2,0-2.4-1.2-2.4-2.4c0-1.3,1.1-2.3,2.5-2.3C63.7,51,64.7,52.1,64.7,53.3z
		"></path>
	<path class="st0" d="M69.2,42.2c0,1.3-1.1,2.4-2.3,2.4c-1.2,0-2.3-1.1-2.3-2.3c0-1.3,1-2.4,2.3-2.4C68.2,39.9,69.2,40.9,69.2,42.2z
		"></path>
</g>
</svg></svg><style>@media (prefers-color-scheme: light) { :root { filter: none; } }
@media (prefers-color-scheme: dark) { :root { filter: none; } }
</style></svg>