<?xml version="1.0" encoding="utf-8"?>
<!-- Generator: Adobe Illustrator 27.4.1, SVG Export Plug-In . SVG Version: 6.00 Build 0)  -->
<svg version="1.1" xmlns="http://www.w3.org/2000/svg" xmlns:xlink="http://www.w3.org/1999/xlink" x="0px" y="0px"
	 viewBox="0 0 356.9 129.4" style="enable-background:new 0 0 356.9 129.4;" xml:space="preserve">
<style type="text/css">
	.st0{display:none;}
	.st1{display:inline;fill:#D30F0F;}
	.st2{fill:#FFFFFF;}
</style>
<g id="Layer_2" class="st0">
	<rect class="st1" width="356.9" height="129.4"/>
</g>
<g id="Layer_1">
	<g>
		<path class="st2" d="M280,57.9c4.2-3.7,9.1-5.5,14.7-5.1c5.6,0.5,10.2,2.8,13.6,7.6c0.5-0.4,0.9-0.8,1.3-1.2
			c2-2.2,4.4-3.8,7.1-4.9c2.2-0.9,4.5-1.3,6.8-1.5c3.3-0.3,6.5,0.2,9.5,1.6c5.2,2.3,8.3,6.4,9.8,11.8c0.8,2.7,1,5.4,1,8.2
			c0,8.2,0,16.5,0,24.7c0,1-0.2,2.1-0.5,3.1c-0.6,2-2.6,3.1-4.7,2.8c-2.1-0.3-3.6-1.9-3.7-3.9c0-0.7,0-1.4,0-2.1c0-8.3,0-16.7,0-25
			c0-2.2-0.3-4.5-1.2-6.6c-1.4-3.2-3.9-5.2-7.3-6c-1.7-0.4-3.4-0.4-5.2-0.1c-3.9,0.8-6.5,3.1-8.1,6.6c-0.8,1.7-1.2,3.5-1.2,5.4
			c0,8.7,0,17.5,0,26.2c0,0.8-0.1,1.7-0.3,2.5c-0.6,2.1-2.4,3.3-4.7,3.1c-2.1-0.2-3.7-1.9-3.9-4.1c0-0.7,0-1.3,0-2
			c0-8.5,0-16.9,0-25.4c0-1.6-0.2-3.2-0.7-4.8c-1.4-5.3-6.8-8.5-12.5-7.7c-5.8,0.9-10.1,6.5-10,11.9c0.1,8.6,0,17.2,0,25.9
			c0,0.9-0.1,1.8-0.2,2.7c-0.4,2.1-2,3.5-4.2,3.5c-2.1,0-3.9-1.4-4.3-3.4c-0.1-0.7-0.2-1.4-0.2-2.1c0-13.5,0-26.9,0-40.4
			c0-0.7,0.1-1.4,0.2-2.1c0.3-2.1,2.1-3.6,4.3-3.6c2.3,0,3.9,1.3,4.3,3.5c0,0.2,0.1,0.5,0.2,0.7C279.7,57.7,279.8,57.7,280,57.9z"/>
		<path class="st2" d="M247.7,96.9c-0.6,0.6-1.1,1-1.5,1.5c-3,3.1-6.6,5.2-10.8,6.2c-3.1,0.8-6.3,1-9.5,0.5
			c-2.9-0.4-5.7-1.2-8.3-2.6c-3.7-2-6.5-4.9-8.8-8.4c-3.6-5.5-4.8-11.6-4.1-18c1-10.8,8.7-19.4,18.5-22.2c5.3-1.5,10.6-1.4,15.9,0.2
			c4.9,1.6,8.9,4.6,12.2,8.5c2.7,3.3,4.1,7.1,5.1,11.1c0.4,1.8,0.5,3.7,0.6,5.6c0.1,6.6,0,13.2,0,19.9c0,0.7-0.1,1.5-0.3,2.2
			c-0.5,2.2-2.4,3.6-4.7,3.5c-2.2-0.1-3.9-1.8-4.1-4.1c-0.1-1,0-2.1-0.1-3.1C247.8,97.5,247.8,97.3,247.7,96.9z M230.8,97.2
			c0.7,0,1.3,0,2,0c2.8-0.2,5.3-1.2,7.6-2.7c3.3-2.2,5.5-5.4,6.7-9.2c1.2-3.6,1.3-7.3,0.4-11.1c-0.8-3.3-2.3-6.1-4.7-8.5
			c-2.2-2.1-4.7-3.7-7.6-4.4c-2.7-0.7-5.4-0.8-8.2-0.2c-3.9,0.8-7.1,2.7-9.6,5.7c-4.5,5.4-5.3,11.6-3.3,18.2
			C216.3,92.5,223.4,97.6,230.8,97.2z"/>
		<path class="st2" d="M112.1,54.9c0.5,0,0.9,0.1,1.3,0.1c2,0,4-0.1,6,0c1.3,0,2.7,0.2,4,0.4c1.6,0.3,2.7,1.5,2.9,3
			c0.2,1.8-0.5,3.3-2.2,3.9c-0.8,0.3-1.6,0.4-2.4,0.5c-2.7,0.1-5.4,0-8.1,0c-0.4,0-0.9,0-1.5,0.1c0,0.6,0,1.1,0,1.5
			c0,11.5,0,22.9,0,34.4c0,0.8-0.1,1.7-0.2,2.5c-0.3,2-1.8,3.4-3.6,3.6c-2.1,0.2-3.9-0.7-4.6-2.6c-0.3-0.8-0.5-1.7-0.5-2.5
			c0-11.7,0-23.5,0-35.2c0-0.5,0-0.9,0-1.5c-0.4-0.1-0.8-0.1-1.2-0.1c-1,0-2.1,0-3.1,0c-0.7,0-1.4-0.2-2.1-0.4
			c-1.6-0.6-2.3-2-2.2-3.8c0.1-1.6,1.1-2.9,2.7-3.2c1.4-0.3,2.8-0.3,4.2-0.4c0.4,0,0.9,0,1.5,0c0.1-0.4,0.2-0.7,0.2-1
			c0.1-2.9,0.4-5.7,1.2-8.5c1.4-4.9,4.2-8.7,8.7-11.3c3-1.7,6.2-2.7,9.6-3c3.1-0.3,6.2-0.4,9.2-0.3c2.9,0.1,5.7,0.9,8.3,2.5
			c1.1,0.7,2.1,1.4,2.7,2.6c0.3,0.6,0.6,1.3,0.7,2c0.2,3-1.1,4-3.2,4.6c-1.9,0.5-3.7,0-5.4-0.9c-1.1-0.6-2.2-1.4-3.2-2.1
			c-1.5-1-2.9-1.9-4.7-2.1c-6.1-0.7-11.7,1.8-13.7,8.1C112.1,48.5,112,51.6,112.1,54.9z"/>
		<path class="st2" d="M177.9,73.4c1-1.3,1.9-2.5,2.8-3.6c3.6-4.8,7.3-9.5,10.9-14.3c1-1.3,2.1-2.1,3.7-2.1c3-0.1,4.4,2.7,3.8,4.8
			c-0.3,1-0.8,2-1.4,2.9c-1.9,2.5-3.8,4.9-5.7,7.4c-2.6,3.4-5.2,6.7-7.8,10.1c-0.2,0.3-0.4,0.6-0.6,1c0.5,0.7,0.9,1.3,1.4,1.9
			c3.3,4,6.6,8.1,9.8,12.1c1.3,1.6,2.7,3.3,4,5c0.6,0.7,0.9,1.5,1,2.5c0.3,3.2-3.5,4.8-5.5,3.6c-0.7-0.4-1.3-0.9-1.8-1.5
			c-2.2-2.6-4.3-5.3-6.5-7.9c-2.6-3.2-5.2-6.4-7.8-9.6c-0.2-0.2-0.3-0.4-0.5-0.7c-0.4,0.5-0.7,0.8-1,1.1
			c-4.5,5.7-9.1,11.4-13.6,17.1c-1,1.3-2.3,1.9-3.9,1.8c-2.2-0.2-3.8-2.4-3.3-4.5c0.3-1.1,0.8-2.1,1.6-3c2.8-3.5,5.6-7,8.4-10.4
			c1.8-2.3,3.7-4.5,5.5-6.8c0.3-0.3,0.5-0.7,0.8-1.1c-0.3-0.5-0.6-1-1-1.4c-4.8-5.8-9.5-11.6-14.3-17.4c-0.6-0.8-1.2-1.6-1.3-2.7
			c-0.1-1.6,0.4-3.1,1.9-3.8c1.6-0.8,3.2-0.6,4.7,0.5c0.4,0.3,0.8,0.7,1.1,1.2c4.1,5.1,8.3,10.1,12.4,15.2
			C176.3,71.5,177,72.4,177.9,73.4z"/>
		<path class="st2" d="M77.2,62.6c-1.3-0.5-2.3-0.8-3.2-1.3c-0.3-0.1-0.5-0.6-0.6-0.9c-1.1-4-3-7.7-5.8-10.8c-2.4-2.7-5-5-8.2-6.7
			c-1.9-1-4-1.7-6-2.4c-3.9-1.3-7.9-1.3-11.9-0.8c-4.7,0.6-9.1,2.2-12.9,5.1c-2.5,1.8-4.7,4-6.5,6.5c-2.2,3-3.8,6.3-4.7,10
			c-1,4-0.9,7.9-0.4,11.9c0.4,3.4,1.6,6.5,3.4,9.5c1.2,2.1,2.6,4.1,4.3,5.8c4.1,4.2,9,7,14.9,8.2c3.4,0.7,6.9,0.9,10.3,0.3
			c3.9-0.6,7.7-1.6,10.9-3.9c0.8-0.6,1.6-0.7,2.6-0.3c0.6,0.3,1.2,0.5,2,0.9c-0.4,0.4-0.7,0.7-1,0.9c-4,2.8-8.4,4.8-13.2,5.6
			c-4.3,0.7-8.7,0.6-13-0.4c-6.4-1.3-11.6-4.7-16-9.4c-2.6-2.8-4.6-6-6.3-9.4c-1.7-3.5-2.2-7.2-2.5-11c-0.3-3.9,0.4-7.7,1.4-11.5
			c0.4-1.7,1.3-3.4,2.2-4.9c2.6-4.5,5.9-8.4,10.1-11.4c3.4-2.4,7.1-4.2,11.3-5.1c4.2-0.9,8.3-1.2,12.5-0.4c4.9,0.8,9.4,2.6,13.4,5.5
			c1.8,1.3,3.4,2.9,5,4.5c1.7,1.8,3.4,3.7,4.6,5.9c1.2,2.1,2,4.4,2.7,6.7c0.2,0.6,0.3,1.2,0.5,1.8C77,61.5,77.1,61.9,77.2,62.6z"/>
		<path class="st2" d="M133.5,79c0-6.5,0-13,0-19.5c0-0.7,0-1.5,0.1-2.2c0.2-2.3,1.9-3.8,4.1-3.9c2.5-0.1,4.2,1.2,4.6,3.6
			c0.1,0.7,0.2,1.3,0.2,2c0,13.3,0,26.6,0,40c0,0.9-0.1,1.8-0.3,2.7c-0.5,2.1-2.2,3.4-4.4,3.3c-2.2-0.1-3.9-1.6-4.2-3.7
			c-0.1-0.7-0.1-1.3-0.1-2C133.5,92.5,133.5,85.7,133.5,79z"/>
		<path class="st2" d="M37.4,59.2c0,3.2,0,6.3,0,9.5c0.5,0,1,0.1,1.5,0.1c3,0,5.9,0,8.9,0c0.5,0,1,0,1.5,0.1c1,0.2,1.5,0.8,1.5,1.7
			c0,1-0.5,1.7-1.5,1.9c-0.4,0.1-0.9,0.1-1.4,0.1c-3,0-6.1,0-9.1,0c-0.4,0-0.9,0.1-1.4,0.1c0,0.5,0,0.9,0,1.4c0,3,0,5.9,0,8.9
			c0,0.4,0,0.8,0,1.2c-0.1,1.3-0.9,2-2.1,2c-1.2,0-2-0.7-2-2.1c0-0.8,0-1.6,0-2.4c0-7.9,0-15.7,0-23.6c0-2.2,0.6-2.8,2.8-2.9
			c5.5,0,11.1,0,16.6,0c0.4,0,0.8,0,1.1,0.1c1,0.2,1.5,0.8,1.5,1.8c0,1-0.6,1.6-1.6,1.8c-0.5,0.1-1.1,0.1-1.6,0.1
			c-4.4,0-8.7,0-13.1,0C38.4,59.1,37.9,59.1,37.4,59.2z"/>
		<path class="st2" d="M70.8,84.7c0,1.2-1.2,2.3-2.4,2.3c-1.2,0-2.4-1.2-2.4-2.4c0-1.3,1.1-2.3,2.5-2.3
			C69.7,82.4,70.8,83.5,70.8,84.7z"/>
		<path class="st2" d="M75.3,73.6c0,1.3-1.1,2.4-2.3,2.4c-1.2,0-2.3-1.1-2.3-2.3c0-1.3,1-2.4,2.3-2.4C74.3,71.3,75.3,72.3,75.3,73.6
			z"/>
	</g>
</g>
</svg>
